<?xml version="1.0" encoding="UTF-8" standalone="no"?>
<!-- Created with Inkscape (http://www.inkscape.org/) -->

<svg
   width="423.33334mm"
   height="423.33334mm"
   viewBox="0 0 423.33334 423.33334"
   version="1.1"
   id="svg1"
   xml:space="preserve"
   xmlns="http://www.w3.org/2000/svg"
   xmlns:svg="http://www.w3.org/2000/svg"><defs
     id="defs1" /><g
     id="layer1"
     transform="translate(102.08444,62.499371)"><path
       style="fill:#2873b8;stroke:none"
       d="m 68.042645,115.30063 c -5.875739,-1.31666 -13.029098,-0.26458 -19.05,-0.26458 -14.109782,0 -30.218223,-2.00133 -43.1270845,4.84153 -16.3464755,8.66511 -19.1474185,34.25019 -9.591889,48.86889 11.4239073,17.47707 36.4173115,13.75833 54.3064735,13.75833 4.152863,0 8.337072,-0.0839 12.435417,0.69752 1.199394,0.2287 3.678894,1.47909 4.742491,0.60011 3.483913,-2.87917 5.394891,-12.93511 7.0606,-17.17263 5.826163,-14.82156 11.766126,-29.60053 17.520475,-44.45 3.596567,-9.28118 7.331642,-18.50885 10.950752,-27.78125 1.48496,-3.804548 3.52965,-7.977033 8.40902,-7.007583 3.44791,0.685036 4.46423,4.142012 5.54016,7.007583 2.51756,6.70513 5.17131,13.36866 7.59455,20.10833 0.68308,1.89984 3.37969,6.34064 2.70121,8.29803 -0.73066,2.10796 -5.10647,4.44592 -6.72102,6.08007 -3.7538,3.79938 -6.54983,8.2961 -8.75533,13.13857 -10.87817,23.88444 -9.12461,65.98368 14.72168,81.6892 11.72284,7.72085 25.02457,8.53372 38.62916,8.53372 18.37065,0 37.49526,-0.70196 50.39738,-15.875 14.44544,-16.98801 15.43546,-46.99668 9.03585,-67.46875 -7.15609,-22.89203 -26.27155,-33.47871 -49.37906,-33.86163 -6.47638,-0.10733 -13.12614,-0.34197 -19.57917,0.19369 -1.72295,0.14301 -6.33587,1.17853 -7.69915,0.0537 -2.47582,-2.04273 -3.66457,-8.64378 -4.78602,-11.62954 C 139.26553,92.653439 136.10963,75.481102 125.19265,69.250894 115.84126,63.914172 99.566093,64.6878 91.62005,72.244801 87.61461,76.054129 85.862117,81.202943 83.864726,86.196436 76.539721,104.509 69.32997,122.87211 62.118669,141.22977 c -2.010649,5.11849 -4.069632,10.21942 -6.060015,15.34583 -0.706094,1.81863 -1.328229,5.02916 -2.822502,6.34763 -1.672685,1.4759 -6.867782,0.53154 -9.006007,0.53154 -8.249061,0 -19.354359,1.79114 -26.722885,-2.71527 -8.1041166,-4.95629 -7.8187658,-18.52691 0.529166,-23.09759 8.261851,-4.52356 22.05962,-1.96839 31.220802,-1.96839 2.709347,0 8.004292,1.02397 10.405825,-0.26696 1.471955,-0.79124 2.033274,-3.84056 2.611759,-5.28929 1.960443,-4.90958 4.088979,-9.80284 5.767833,-14.81667 m 87.312505,20.46352 c 13.87606,-1.31097 35.15321,-2.61624 44.77653,9.4344 10.86642,13.60731 11.02142,45.58291 -1.16795,58.46302 -5.05964,5.34633 -12.19183,7.17303 -19.26692,7.85645 -14.03028,1.35528 -35.7291,2.78982 -45.62031,-9.16947 -3.42001,-4.13507 -5.29421,-9.58444 -6.17176,-14.81666 -2.27378,-13.55699 -2.76923,-32.92508 7.37366,-43.65385 5.32878,-5.63659 12.63473,-7.41079 20.07675,-8.11389 m -17.99167,11.55107 c 2.45783,9.47376 6.864,18.92463 10.42252,28.04583 0.95098,2.43755 1.86639,8.14117 4.06649,9.66916 1.3583,0.94336 4.29901,0.38501 5.88391,0.38501 5.2878,0 11.50585,0.89234 16.66875,-0.26458 -4.3572,-11.26718 -8.66612,-22.55816 -12.91481,-33.86667 -0.86355,-2.29844 -2.57658,-10.39683 -4.93255,-11.30648 -5.16406,-1.99386 -15.25624,4.65017 -19.19431,7.33773 M -6.8344398,211.87355 v 20.37292 H 49.257228 c 11.633641,0 24.170102,0.42478 34.131251,-6.6401 13.141543,-9.32049 15.267043,-29.8017 9.388106,-43.89532 -1.91684,-4.59526 -7.679086,-13.28706 -13.311785,-13.6834 -2.253367,-0.15855 -4.787902,9.40735 -5.523581,11.30215 -0.762921,1.96497 -2.708749,5.00477 -2.456358,7.14375 0.235095,1.99245 2.317204,3.84657 2.952533,5.82084 2.011747,6.25137 -0.05906,13.69173 -5.865582,17.13942 -6.510908,3.86592 -16.288703,2.17516 -23.547917,2.17516 -17.291242,0 -34.577348,0.26458 -51.8583348,0.26458 z"
       id="path55" /></g></svg>
